<svg viewBox="0 0 384 512" xmlns="http://www.w3.org/2000/svg" xmlns:xlink="http://www.w3.org/1999/xlink" overflow="hidden"><path d="M180.7 4.7C186.9-1.5 197.1-1.5 203.3 4.7L283.3 84.7C285.8 87.2 287.4 90.5 287.9 94L328.1 416 55.9 416 96.1 94C96.5 90.5 98.1 87.2 100.7 84.7L180.7 4.7ZM152 272C138.7 272 128 282.7 128 296 128 309.3 138.7 320 152 320L232 320C245.3 320 256 309.3 256 296 256 282.7 245.3 272 232 272L152 272ZM32 448 352 448C369.7 448 384 462.3 384 480 384 497.7 369.7 512 352 512L32 512C14.3 512 0 497.7 0 480 0 462.3 14.3 448 32 448Z" fill="#3B3838"/></svg>