<svg viewBox="0 0 512 512" xmlns="http://www.w3.org/2000/svg" xmlns:xlink="http://www.w3.org/1999/xlink" overflow="hidden"><path d="M240.1 4.2C249.9-1.4 262-1.4 271.9 4.2L443.7 102.3 448 104 448 104.9 495.9 132.3C508.5 139.5 514.7 154.3 511 168.3 507.3 182.3 494.6 192.1 480.1 192.1L32 192.1C17.5 192.1 4.8 182.3 1.1 168.3-2.6 154.3 3.6 139.5 16.2 132.3L64 104.9 64 104 68.4 102.4 240.1 4.2ZM64 224 128 224 128 416 168 416 168 224 232 224 232 416 280 416 280 224 344 224 344 416 384 416 384 224 448 224 448 420.3C448.6 420.6 449.2 421 449.8 421.4L497.8 453.4C509.5 461.2 514.8 475.8 510.7 489.3 506.6 502.8 494.1 512 480 512L32 512C17.9 512 5.5 502.8 1.4 489.3-2.7 475.8 2.5 461.2 14.3 453.4L62.3 421.4C62.9 421 63.5 420.7 64.1 420.3L64.1 224Z" fill="#203864"/></svg>