<svg viewBox="0 0 512 512" xmlns="http://www.w3.org/2000/svg" xmlns:xlink="http://www.w3.org/1999/xlink" overflow="hidden"><path d="M64 32 64 480C64 497.7 49.7 512 32 512 14.3 512 0 497.7 0 480L0 32C0 14.3 14.3 0 32 0 49.7 0 64 14.3 64 32ZM104.8 334.8C101.8 335.7 98.8 336.5 96 337.4L96 13.5C121.5 6.4 153 0 184 0 220.5 0 252.3 9.1 279.6 16.9L280.9 17.3C309.4 25.4 333.3 32 360 32 386.8 32 412.9 25.2 433 17.9 442.9 14.3 450.9 10.7 456.4 8.1 459.1 6.8 461.2 5.7 462.6 5 463.3 4.6 463.7 4.4 464 4.2L464.2 4.1C474.1-1.5 486.3-1.5 496.1 4.3 505.9 10.1 512 20.6 512 32L512 288C512 300.1 505.2 311.2 494.3 316.6L480 288C494.3 316.6 494.3 316.6 494.3 316.6L494.3 316.6 494.3 316.6 494.2 316.6 494 316.7 493.3 317.1C492.7 317.4 491.8 317.8 490.8 318.3 488.6 319.3 485.6 320.7 481.8 322.3 474.1 325.6 463.3 329.9 450.3 334.2 424.5 342.9 388.8 352 352 352 315 352 286.8 342.6 263 334.7L262 334.4C238 326.4 218.3 320 192 320 164.5 320 131.9 327 104.8 334.8Z" fill="#C00000"/></svg>